<svg width="24" height="24" viewBox="0 0 24 24" fill="none" xmlns="http://www.w3.org/2000/svg">
<path d="M23.5861 19.8621H0.413812C0.185297 19.8621 0 19.6768 0 19.4483V4.55175C0 4.32324 0.185297 4.13794 0.413812 4.13794H23.5862C23.8147 4.13794 24 4.32324 24 4.55175V19.4483C24 19.6768 23.8147 19.8621 23.5861 19.8621Z" fill="#F5F5F5"/>
<path d="M24 5.34755H0V4.55175C0 4.32324 0.185297 4.13794 0.413812 4.13794H23.5862C23.8147 4.13794 24 4.32324 24 4.55175L24 5.34755Z" fill="#FF4B55"/>
<path d="M24 8.97615H0V10.1857H24V8.97615Z" fill="#FF4B55"/>
<path d="M24 6.55693H0V7.76649H24V6.55693Z" fill="#FF4B55"/>
<path d="M24 12.6048H0.413812C0.185297 12.6048 0 12.4195 0 12.191V11.3952H24V12.6048Z" fill="#FF4B55"/>
<path d="M24 16.2338H0V17.4433H24V16.2338Z" fill="#FF4B55"/>
<path d="M23.5861 19.8621H0.413812C0.185297 19.8621 0 19.6768 0 19.4483V18.6525H24V19.4483C24 19.6768 23.8147 19.8621 23.5861 19.8621Z" fill="#FF4B55"/>
<path d="M24 13.8146H0V15.0241H24V13.8146Z" fill="#FF4B55"/>
<path d="M10.7586 4.13799H0.413812C0.185297 4.13799 0 4.32323 0 4.55175V12.191C0 12.4195 0.185297 12.6048 0.413812 12.6048H10.7586C10.9872 12.6048 11.1724 12.4195 11.1724 12.191V4.55175C11.1724 4.32323 10.9871 4.13799 10.7586 4.13799Z" fill="#41479B"/>
<path d="M1.16198 5.08783L1.25357 5.36252L1.54312 5.36472C1.58062 5.36505 1.59613 5.41286 1.56599 5.43513L1.33307 5.60716L1.42045 5.88321C1.43179 5.91893 1.39106 5.94855 1.36054 5.92671L1.125 5.75838L0.88945 5.92675C0.858935 5.94855 0.818295 5.91897 0.829544 5.88325L0.916919 5.60721L0.683998 5.43518C0.653858 5.41286 0.669373 5.3651 0.706873 5.36477L0.996419 5.36257L1.08801 5.08788C1.09982 5.05226 1.15007 5.05226 1.16198 5.08783Z" fill="#F5F5F5"/>
<path d="M1.16198 6.52461L1.25357 6.79929L1.54312 6.8015C1.58062 6.80182 1.59613 6.84964 1.56599 6.8719L1.33307 7.04393L1.42045 7.31998C1.43179 7.3557 1.39106 7.38532 1.36054 7.36348L1.125 7.19515L0.88945 7.36353C0.858935 7.38532 0.818295 7.35574 0.829544 7.32002L0.916919 7.04398L0.683998 6.87195C0.653858 6.84964 0.669373 6.80187 0.706873 6.80154L0.996419 6.79934L1.08801 6.52465C1.09982 6.48907 1.15007 6.48907 1.16198 6.52461Z" fill="#F5F5F5"/>
<path d="M1.16198 7.96153L1.25357 8.23622L1.54312 8.23842C1.58062 8.23875 1.59613 8.28657 1.56599 8.30883L1.33307 8.48086L1.42045 8.75691C1.43179 8.79263 1.39106 8.82225 1.36054 8.80041L1.125 8.63208L0.88945 8.80046C0.858935 8.82225 0.818295 8.79268 0.829544 8.75696L0.916919 8.48091L0.683998 8.30888C0.653858 8.28657 0.669373 8.2388 0.706873 8.23847L0.996419 8.23627L1.08801 7.96158C1.09982 7.926 1.15007 7.926 1.16198 7.96153Z" fill="#F5F5F5"/>
<path d="M1.16198 9.39847L1.25357 9.67315L1.54312 9.67536C1.58062 9.67568 1.59613 9.7235 1.56599 9.74576L1.33307 9.91779L1.42045 10.1938C1.43179 10.2296 1.39106 10.2592 1.36054 10.2373L1.125 10.069L0.88945 10.2374C0.858935 10.2592 0.818295 10.2296 0.829544 10.1939L0.916919 9.91784L0.683998 9.74581C0.653858 9.7235 0.669373 9.67573 0.706873 9.6754L0.996419 9.6732L1.08801 9.39851C1.09982 9.36289 1.15007 9.36289 1.16198 9.39847Z" fill="#F5F5F5"/>
<path d="M1.16198 10.8354L1.25357 11.1101L1.54312 11.1123C1.58062 11.1126 1.59613 11.1604 1.56599 11.1827L1.33307 11.3547L1.42045 11.6307C1.43179 11.6665 1.39106 11.6961 1.36054 11.6742L1.125 11.5059L0.88945 11.6743C0.858935 11.6961 0.818295 11.6665 0.829544 11.6308L0.916919 11.3547L0.683998 11.1827C0.653858 11.1604 0.669373 11.1126 0.706873 11.1123L0.996419 11.1101L1.08801 10.8354C1.09982 10.7997 1.15007 10.7997 1.16198 10.8354Z" fill="#F5F5F5"/>
<path d="M2.27734 5.79218L2.36893 6.06687L2.65848 6.06907C2.69598 6.0694 2.71149 6.11721 2.68135 6.13948L2.44843 6.31151L2.53581 6.58756C2.54715 6.62327 2.50642 6.6529 2.4759 6.63105L2.24035 6.46268L2.00481 6.63105C1.97429 6.65285 1.93365 6.62327 1.9449 6.58756L2.03228 6.31151L1.79935 6.13948C1.76921 6.11717 1.78473 6.0694 1.82223 6.06907L2.11178 6.06687L2.20337 5.79218C2.21514 5.75665 2.26548 5.75665 2.27734 5.79218Z" fill="#F5F5F5"/>
<path d="M2.27734 7.22915L2.36893 7.50384L2.65848 7.50604C2.69598 7.50637 2.71149 7.55418 2.68135 7.57645L2.44843 7.74848L2.53581 8.02452C2.54715 8.06024 2.50642 8.08986 2.4759 8.06802L2.24035 7.89965L2.00481 8.06802C1.97429 8.08982 1.93365 8.06029 1.9449 8.02452L2.03228 7.74848L1.79935 7.57645C1.76921 7.55413 1.78473 7.50637 1.82223 7.50604L2.11178 7.50384L2.20337 7.22915C2.21514 7.19357 2.26548 7.19357 2.27734 7.22915Z" fill="#F5F5F5"/>
<path d="M2.27734 8.66605L2.36893 8.94074L2.65848 8.94294C2.69598 8.94327 2.71149 8.99108 2.68135 9.01335L2.44843 9.18538L2.53581 9.46142C2.54715 9.49714 2.50642 9.52677 2.4759 9.50492L2.24035 9.33655L2.00481 9.50492C1.97429 9.52672 1.93365 9.49714 1.9449 9.46142L2.03228 9.18538L1.79935 9.01335C1.76921 8.99103 1.78473 8.94327 1.82223 8.94294L2.11178 8.94074L2.20337 8.66605C2.21514 8.63047 2.26548 8.63047 2.27734 8.66605Z" fill="#F5F5F5"/>
<path d="M2.27734 10.1029L2.36893 10.3776L2.65848 10.3798C2.69598 10.3802 2.71149 10.428 2.68135 10.4502L2.44843 10.6223L2.53581 10.8983C2.54715 10.934 2.50642 10.9637 2.4759 10.9418L2.24035 10.7734L2.00481 10.9418C1.97429 10.9636 1.93365 10.934 1.9449 10.8983L2.03228 10.6223L1.79935 10.4502C1.76921 10.4279 1.78473 10.3802 1.82223 10.3798L2.11178 10.3776L2.20337 10.1029C2.21514 10.0674 2.26548 10.0674 2.27734 10.1029Z" fill="#F5F5F5"/>
<path d="M3.39257 5.08771L3.48417 5.3624L3.77371 5.3646C3.81121 5.36493 3.82673 5.41274 3.79659 5.43501L3.56367 5.60704L3.65104 5.88308C3.66239 5.9188 3.62165 5.94843 3.59114 5.92658L3.35559 5.75821L3.12004 5.92658C3.08953 5.94838 3.04889 5.9188 3.06014 5.88308L3.14751 5.60704L2.91459 5.43501C2.88445 5.41269 2.89996 5.36493 2.93746 5.3646L3.22701 5.3624L3.3186 5.08771C3.33042 5.05213 3.38071 5.05213 3.39257 5.08771Z" fill="#F5F5F5"/>
<path d="M3.39257 6.5246L3.48417 6.79929L3.77371 6.80149C3.81121 6.80182 3.82673 6.84963 3.79659 6.8719L3.56367 7.04393L3.65104 7.31998C3.66239 7.3557 3.62165 7.38532 3.59114 7.36348L3.35559 7.1951L3.12004 7.36348C3.08953 7.38527 3.04889 7.3557 3.06014 7.31998L3.14751 7.04393L2.91459 6.8719C2.88445 6.84959 2.89996 6.80182 2.93746 6.80149L3.22701 6.79929L3.3186 6.5246C3.33042 6.48907 3.38071 6.48907 3.39257 6.5246Z" fill="#F5F5F5"/>
<path d="M3.39257 7.96154L3.48417 8.23623L3.77371 8.23843C3.81121 8.23876 3.82673 8.28657 3.79659 8.30884L3.56367 8.48087L3.65104 8.75692C3.66239 8.79264 3.62165 8.82226 3.59114 8.80042L3.35559 8.63204L3.12004 8.80042C3.08953 8.82222 3.04889 8.79264 3.06014 8.75692L3.14751 8.48087L2.91459 8.30884C2.88445 8.28653 2.89996 8.23876 2.93746 8.23843L3.22701 8.23623L3.3186 7.96154C3.33042 7.92601 3.38071 7.92601 3.39257 7.96154Z" fill="#F5F5F5"/>
<path d="M3.39257 9.39847L3.48417 9.67316L3.77371 9.67536C3.81121 9.67569 3.82673 9.7235 3.79659 9.74577L3.56367 9.9178L3.65104 10.1938C3.66239 10.2296 3.62165 10.2592 3.59114 10.2373L3.35559 10.069L3.12004 10.2373C3.08953 10.2591 3.04889 10.2296 3.06014 10.1938L3.14751 9.9178L2.91459 9.74577C2.88445 9.72346 2.89996 9.67569 2.93746 9.67536L3.22701 9.67316L3.3186 9.39847C3.33042 9.36289 3.38071 9.36289 3.39257 9.39847Z" fill="#F5F5F5"/>
<path d="M3.39257 10.8354L3.48417 11.1101L3.77371 11.1123C3.81121 11.1126 3.82673 11.1604 3.79659 11.1827L3.56367 11.3547L3.65104 11.6308C3.66239 11.6665 3.62165 11.6961 3.59114 11.6743L3.35559 11.5059L3.12004 11.6743C3.08953 11.6961 3.04889 11.6665 3.06014 11.6308L3.14751 11.3547L2.91459 11.1827C2.88445 11.1604 2.89996 11.1126 2.93746 11.1123L3.22701 11.1101L3.3186 10.8354C3.33042 10.7998 3.38071 10.7998 3.39257 10.8354Z" fill="#F5F5F5"/>
<path d="M4.50781 5.79218L4.5994 6.06687L4.88895 6.06907C4.92645 6.0694 4.94196 6.11721 4.91182 6.13948L4.6789 6.31151L4.76627 6.58756C4.77762 6.62327 4.73688 6.6529 4.70637 6.63105L4.47082 6.46268L4.23528 6.63105C4.20476 6.65285 4.16412 6.62327 4.17537 6.58756L4.26274 6.31151L4.02982 6.13948C3.99968 6.11717 4.0152 6.0694 4.0527 6.06907L4.34224 6.06687L4.43384 5.79218C4.4456 5.75665 4.49595 5.75665 4.50781 5.79218Z" fill="#F5F5F5"/>
<path d="M4.50781 7.22915L4.5994 7.50384L4.88895 7.50604C4.92645 7.50637 4.94196 7.55418 4.91182 7.57645L4.6789 7.74848L4.76627 8.02452C4.77762 8.06024 4.73688 8.08986 4.70637 8.06802L4.47082 7.89965L4.23528 8.06802C4.20476 8.08982 4.16412 8.06029 4.17537 8.02452L4.26274 7.74848L4.02982 7.57645C3.99968 7.55413 4.0152 7.50637 4.0527 7.50604L4.34224 7.50384L4.43384 7.22915C4.4456 7.19357 4.49595 7.19357 4.50781 7.22915Z" fill="#F5F5F5"/>
<path d="M4.50781 8.66605L4.5994 8.94074L4.88895 8.94294C4.92645 8.94327 4.94196 8.99108 4.91182 9.01335L4.6789 9.18538L4.76627 9.46142C4.77762 9.49714 4.73688 9.52677 4.70637 9.50492L4.47082 9.33655L4.23528 9.50492C4.20476 9.52672 4.16412 9.49714 4.17537 9.46142L4.26274 9.18538L4.02982 9.01335C3.99968 8.99103 4.0152 8.94327 4.0527 8.94294L4.34224 8.94074L4.43384 8.66605C4.4456 8.63047 4.49595 8.63047 4.50781 8.66605Z" fill="#F5F5F5"/>
<path d="M4.50781 10.1029L4.5994 10.3776L4.88895 10.3798C4.92645 10.3802 4.94196 10.428 4.91182 10.4502L4.6789 10.6223L4.76627 10.8983C4.77762 10.934 4.73688 10.9637 4.70637 10.9418L4.47082 10.7734L4.23528 10.9418C4.20476 10.9636 4.16412 10.934 4.17537 10.8983L4.26274 10.6223L4.02982 10.4502C3.99968 10.4279 4.0152 10.3802 4.0527 10.3798L4.34224 10.3776L4.43384 10.1029C4.4456 10.0674 4.49595 10.0674 4.50781 10.1029Z" fill="#F5F5F5"/>
<path d="M5.62321 5.08771L5.7148 5.3624L6.00435 5.3646C6.04185 5.36493 6.05737 5.41274 6.02723 5.43501L5.7943 5.60704L5.88168 5.88308C5.89302 5.9188 5.85229 5.94843 5.82177 5.92658L5.58618 5.75821L5.35063 5.92658C5.32012 5.94838 5.27948 5.9188 5.29073 5.88308L5.3781 5.60704L5.14518 5.43501C5.11504 5.41269 5.13055 5.36493 5.16805 5.3646L5.4576 5.3624L5.5492 5.08771C5.56105 5.05213 5.61135 5.05213 5.62321 5.08771Z" fill="#F5F5F5"/>
<path d="M5.62321 6.5246L5.7148 6.79929L6.00435 6.80149C6.04185 6.80182 6.05737 6.84963 6.02723 6.8719L5.7943 7.04393L5.88168 7.31998C5.89302 7.3557 5.85229 7.38532 5.82177 7.36348L5.58618 7.1951L5.35063 7.36348C5.32012 7.38527 5.27948 7.3557 5.29073 7.31998L5.3781 7.04393L5.14518 6.8719C5.11504 6.84959 5.13055 6.80182 5.16805 6.80149L5.4576 6.79929L5.5492 6.5246C5.56105 6.48907 5.61135 6.48907 5.62321 6.5246Z" fill="#F5F5F5"/>
<path d="M5.62321 7.96154L5.7148 8.23623L6.00435 8.23843C6.04185 8.23876 6.05737 8.28657 6.02723 8.30884L5.7943 8.48087L5.88168 8.75692C5.89302 8.79264 5.85229 8.82226 5.82177 8.80042L5.58618 8.63204L5.35063 8.80042C5.32012 8.82222 5.27948 8.79264 5.29073 8.75692L5.3781 8.48087L5.14518 8.30884C5.11504 8.28653 5.13055 8.23876 5.16805 8.23843L5.4576 8.23623L5.5492 7.96154C5.56105 7.92601 5.61135 7.92601 5.62321 7.96154Z" fill="#F5F5F5"/>
<path d="M5.62321 9.39847L5.7148 9.67316L6.00435 9.67536C6.04185 9.67569 6.05737 9.7235 6.02723 9.74577L5.7943 9.9178L5.88168 10.1938C5.89302 10.2296 5.85229 10.2592 5.82177 10.2373L5.58618 10.069L5.35063 10.2373C5.32012 10.2591 5.27948 10.2296 5.29073 10.1938L5.3781 9.9178L5.14518 9.74577C5.11504 9.72346 5.13055 9.67569 5.16805 9.67536L5.4576 9.67316L5.5492 9.39847C5.56105 9.36289 5.61135 9.36289 5.62321 9.39847Z" fill="#F5F5F5"/>
<path d="M5.62321 10.8354L5.7148 11.1101L6.00435 11.1123C6.04185 11.1126 6.05737 11.1604 6.02723 11.1827L5.7943 11.3547L5.88168 11.6308C5.89302 11.6665 5.85229 11.6961 5.82177 11.6743L5.58618 11.5059L5.35063 11.6743C5.32012 11.6961 5.27948 11.6665 5.29073 11.6308L5.3781 11.3547L5.14518 11.1827C5.11504 11.1604 5.13055 11.1126 5.16805 11.1123L5.4576 11.1101L5.5492 10.8354C5.56105 10.7998 5.61135 10.7998 5.62321 10.8354Z" fill="#F5F5F5"/>
<path d="M6.73852 5.79218L6.83011 6.06687L7.11966 6.06907C7.15716 6.0694 7.17268 6.11721 7.14254 6.13948L6.90961 6.31151L6.99699 6.58756C7.00833 6.62327 6.9676 6.6529 6.93708 6.63105L6.70154 6.46268L6.46599 6.63105C6.43547 6.65285 6.39483 6.62327 6.40608 6.58756L6.49346 6.31151L6.26054 6.13948C6.2304 6.11717 6.24591 6.0694 6.28341 6.06907L6.57296 6.06687L6.66455 5.79218C6.67641 5.75665 6.72666 5.75665 6.73852 5.79218Z" fill="#F5F5F5"/>
<path d="M6.73852 7.22915L6.83011 7.50384L7.11966 7.50604C7.15716 7.50637 7.17268 7.55418 7.14254 7.57645L6.90961 7.74848L6.99699 8.02452C7.00833 8.06024 6.9676 8.08986 6.93708 8.06802L6.70154 7.89965L6.46599 8.06802C6.43547 8.08982 6.39483 8.06029 6.40608 8.02452L6.49346 7.74848L6.26054 7.57645C6.2304 7.55413 6.24591 7.50637 6.28341 7.50604L6.57296 7.50384L6.66455 7.22915C6.67641 7.19357 6.72666 7.19357 6.73852 7.22915Z" fill="#F5F5F5"/>
<path d="M6.73852 8.66605L6.83011 8.94074L7.11966 8.94294C7.15716 8.94327 7.17268 8.99108 7.14254 9.01335L6.90961 9.18538L6.99699 9.46142C7.00833 9.49714 6.9676 9.52677 6.93708 9.50492L6.70154 9.33655L6.46599 9.50492C6.43547 9.52672 6.39483 9.49714 6.40608 9.46142L6.49346 9.18538L6.26054 9.01335C6.2304 8.99103 6.24591 8.94327 6.28341 8.94294L6.57296 8.94074L6.66455 8.66605C6.67641 8.63047 6.72666 8.63047 6.73852 8.66605Z" fill="#F5F5F5"/>
<path d="M6.73852 10.1029L6.83011 10.3776L7.11966 10.3798C7.15716 10.3802 7.17268 10.428 7.14254 10.4502L6.90961 10.6223L6.99699 10.8983C7.00833 10.934 6.9676 10.9637 6.93708 10.9418L6.70154 10.7734L6.46599 10.9418C6.43547 10.9636 6.39483 10.934 6.40608 10.8983L6.49346 10.6223L6.26054 10.4502C6.2304 10.4279 6.24591 10.3802 6.28341 10.3798L6.57296 10.3776L6.66455 10.1029C6.67641 10.0674 6.72666 10.0674 6.73852 10.1029Z" fill="#F5F5F5"/>
<path d="M7.85388 5.08771L7.94548 5.3624L8.23502 5.3646C8.27252 5.36493 8.28804 5.41274 8.2579 5.43501L8.02498 5.60704L8.11235 5.88308C8.1237 5.9188 8.08296 5.94843 8.05245 5.92658L7.8169 5.75821L7.58135 5.92658C7.55083 5.94838 7.51019 5.9188 7.52144 5.88308L7.60882 5.60704L7.37589 5.43501C7.34575 5.41269 7.36127 5.36493 7.39877 5.3646L7.68832 5.3624L7.77991 5.08771C7.79168 5.05213 7.84202 5.05213 7.85388 5.08771Z" fill="#F5F5F5"/>
<path d="M7.85388 6.5246L7.94548 6.79929L8.23502 6.80149C8.27252 6.80182 8.28804 6.84963 8.2579 6.8719L8.02498 7.04393L8.11235 7.31998C8.1237 7.3557 8.08296 7.38532 8.05245 7.36348L7.8169 7.1951L7.58135 7.36348C7.55083 7.38527 7.51019 7.3557 7.52144 7.31998L7.60882 7.04393L7.37589 6.8719C7.34575 6.84959 7.36127 6.80182 7.39877 6.80149L7.68832 6.79929L7.77991 6.5246C7.79168 6.48907 7.84202 6.48907 7.85388 6.5246Z" fill="#F5F5F5"/>
<path d="M7.85388 7.96154L7.94548 8.23623L8.23502 8.23843C8.27252 8.23876 8.28804 8.28657 8.2579 8.30884L8.02498 8.48087L8.11235 8.75692C8.1237 8.79264 8.08296 8.82226 8.05245 8.80042L7.8169 8.63204L7.58135 8.80042C7.55083 8.82222 7.51019 8.79264 7.52144 8.75692L7.60882 8.48087L7.37589 8.30884C7.34575 8.28653 7.36127 8.23876 7.39877 8.23843L7.68832 8.23623L7.77991 7.96154C7.79168 7.92601 7.84202 7.92601 7.85388 7.96154Z" fill="#F5F5F5"/>
<path d="M7.85388 9.39847L7.94548 9.67316L8.23502 9.67536C8.27252 9.67569 8.28804 9.7235 8.2579 9.74577L8.02498 9.9178L8.11235 10.1938C8.1237 10.2296 8.08296 10.2592 8.05245 10.2373L7.8169 10.069L7.58135 10.2373C7.55083 10.2591 7.51019 10.2296 7.52144 10.1938L7.60882 9.9178L7.37589 9.74577C7.34575 9.72346 7.36127 9.67569 7.39877 9.67536L7.68832 9.67316L7.77991 9.39847C7.79168 9.36289 7.84202 9.36289 7.85388 9.39847Z" fill="#F5F5F5"/>
<path d="M7.85388 10.8354L7.94548 11.1101L8.23502 11.1123C8.27252 11.1126 8.28804 11.1604 8.2579 11.1827L8.02498 11.3547L8.11235 11.6308C8.1237 11.6665 8.08296 11.6961 8.05245 11.6743L7.8169 11.5059L7.58135 11.6743C7.55083 11.6961 7.51019 11.6665 7.52144 11.6308L7.60882 11.3547L7.37589 11.1827C7.34575 11.1604 7.36127 11.1126 7.39877 11.1123L7.68832 11.1101L7.77991 10.8354C7.79168 10.7998 7.84202 10.7998 7.85388 10.8354Z" fill="#F5F5F5"/>
<path d="M8.96911 5.79218L9.0607 6.06687L9.35025 6.06907C9.38775 6.0694 9.40327 6.11721 9.37312 6.13948L9.1402 6.31151L9.22758 6.58756C9.23892 6.62327 9.19819 6.6529 9.16767 6.63105L8.93213 6.46268L8.69658 6.63105C8.66606 6.65285 8.62542 6.62327 8.63667 6.58756L8.72405 6.31151L8.49113 6.13948C8.46099 6.11717 8.4765 6.0694 8.514 6.06907L8.80355 6.06687L8.89514 5.79218C8.90695 5.75665 8.9573 5.75665 8.96911 5.79218Z" fill="#F5F5F5"/>
<path d="M8.96911 7.22915L9.0607 7.50384L9.35025 7.50604C9.38775 7.50637 9.40327 7.55418 9.37312 7.57645L9.1402 7.74848L9.22758 8.02452C9.23892 8.06024 9.19819 8.08986 9.16767 8.06802L8.93213 7.89965L8.69658 8.06802C8.66606 8.08982 8.62542 8.06029 8.63667 8.02452L8.72405 7.74848L8.49113 7.57645C8.46099 7.55413 8.4765 7.50637 8.514 7.50604L8.80355 7.50384L8.89514 7.22915C8.90695 7.19357 8.9573 7.19357 8.96911 7.22915Z" fill="#F5F5F5"/>
<path d="M8.96911 8.66605L9.0607 8.94074L9.35025 8.94294C9.38775 8.94327 9.40327 8.99108 9.37312 9.01335L9.1402 9.18538L9.22758 9.46142C9.23892 9.49714 9.19819 9.52677 9.16767 9.50492L8.93213 9.33655L8.69658 9.50492C8.66606 9.52672 8.62542 9.49714 8.63667 9.46142L8.72405 9.18538L8.49113 9.01335C8.46099 8.99103 8.4765 8.94327 8.514 8.94294L8.80355 8.94074L8.89514 8.66605C8.90695 8.63047 8.9573 8.63047 8.96911 8.66605Z" fill="#F5F5F5"/>
<path d="M8.96911 10.1029L9.0607 10.3776L9.35025 10.3798C9.38775 10.3802 9.40327 10.428 9.37312 10.4502L9.1402 10.6223L9.22758 10.8983C9.23892 10.934 9.19819 10.9637 9.16767 10.9418L8.93213 10.7734L8.69658 10.9418C8.66606 10.9636 8.62542 10.934 8.63667 10.8983L8.72405 10.6223L8.49113 10.4502C8.46099 10.4279 8.4765 10.3802 8.514 10.3798L8.80355 10.3776L8.89514 10.1029C8.90695 10.0674 8.9573 10.0674 8.96911 10.1029Z" fill="#F5F5F5"/>
<path d="M10.0845 5.08771L10.1761 5.3624L10.4656 5.3646C10.5031 5.36493 10.5186 5.41274 10.4885 5.43501L10.2556 5.60704L10.3429 5.88308C10.3543 5.9188 10.3135 5.94843 10.283 5.92658L10.0475 5.75821L9.81194 5.92658C9.78142 5.94838 9.74078 5.9188 9.75203 5.88308L9.83941 5.60704L9.60648 5.43501C9.57634 5.41269 9.59186 5.36493 9.62936 5.3646L9.91891 5.3624L10.0105 5.08771C10.0223 5.05213 10.0726 5.05213 10.0845 5.08771Z" fill="#F5F5F5"/>
<path d="M10.0845 6.5246L10.1761 6.79929L10.4656 6.80149C10.5031 6.80182 10.5186 6.84963 10.4885 6.8719L10.2556 7.04393L10.3429 7.31998C10.3543 7.3557 10.3135 7.38532 10.283 7.36348L10.0475 7.1951L9.81194 7.36348C9.78142 7.38527 9.74078 7.3557 9.75203 7.31998L9.83941 7.04393L9.60648 6.8719C9.57634 6.84959 9.59186 6.80182 9.62936 6.80149L9.91891 6.79929L10.0105 6.5246C10.0223 6.48907 10.0726 6.48907 10.0845 6.5246Z" fill="#F5F5F5"/>
<path d="M10.0845 7.96154L10.1761 8.23623L10.4656 8.23843C10.5031 8.23876 10.5186 8.28657 10.4885 8.30884L10.2556 8.48087L10.3429 8.75692C10.3543 8.79264 10.3135 8.82226 10.283 8.80042L10.0475 8.63204L9.81194 8.80042C9.78142 8.82222 9.74078 8.79264 9.75203 8.75692L9.83941 8.48087L9.60648 8.30884C9.57634 8.28653 9.59186 8.23876 9.62936 8.23843L9.91891 8.23623L10.0105 7.96154C10.0223 7.92601 10.0726 7.92601 10.0845 7.96154Z" fill="#F5F5F5"/>
<path d="M10.0845 9.39847L10.1761 9.67316L10.4656 9.67536C10.5031 9.67569 10.5186 9.7235 10.4885 9.74577L10.2556 9.9178L10.3429 10.1938C10.3543 10.2296 10.3135 10.2592 10.283 10.2373L10.0475 10.069L9.81194 10.2373C9.78142 10.2591 9.74078 10.2296 9.75203 10.1938L9.83941 9.9178L9.60648 9.74577C9.57634 9.72346 9.59186 9.67569 9.62936 9.67536L9.91891 9.67316L10.0105 9.39847C10.0223 9.36289 10.0726 9.36289 10.0845 9.39847Z" fill="#F5F5F5"/>
<path d="M10.0845 10.8354L10.1761 11.1101L10.4656 11.1123C10.5031 11.1126 10.5186 11.1604 10.4885 11.1827L10.2556 11.3547L10.3429 11.6308C10.3543 11.6665 10.3135 11.6961 10.283 11.6743L10.0475 11.5059L9.81194 11.6743C9.78142 11.6961 9.74078 11.6665 9.75203 11.6308L9.83941 11.3547L9.60648 11.1827C9.57634 11.1604 9.59186 11.1126 9.62936 11.1123L9.91891 11.1101L10.0105 10.8354C10.0223 10.7998 10.0726 10.7998 10.0845 10.8354Z" fill="#F5F5F5"/>
</svg>