<svg width="24" height="24" viewBox="0 0 24 24" fill="none" xmlns="http://www.w3.org/2000/svg">
<path d="M23.5861 19.8621H0.413812C0.185297 19.8621 0 19.6768 0 19.4483V4.55175C0 4.32324 0.185297 4.13794 0.413812 4.13794H23.5862C23.8147 4.13794 24 4.32324 24 4.55175V19.4483C24 19.6768 23.8147 19.8621 23.5861 19.8621Z" fill="#FF4B55"/>
<path d="M16.3768 13.2341C16.3768 13.2341 15.5524 13.0967 14.9418 12.5903C14.7616 12.4409 14.5002 12.3267 14.2456 12.2424C14.4503 12.2333 14.6674 12.239 14.8726 12.2805C15.7225 12.4523 16.5466 12.0398 16.5466 12.0398C16.5466 12.0398 15.7151 12.1237 14.993 11.7954C14.7976 11.7066 14.5443 11.6648 14.2971 11.6472C14.4749 11.5961 14.6636 11.556 14.85 11.5457C15.7158 11.4977 16.4093 10.8907 16.4093 10.8907C16.4093 10.8907 15.6258 11.1815 14.8442 11.0459C14.6166 11.0064 14.3371 11.036 14.0771 11.0883C14.2482 10.9808 14.4365 10.8804 14.6319 10.8158C15.4552 10.5434 15.9661 9.77637 15.9661 9.77637C15.9661 9.77637 15.2857 10.2617 14.4958 10.3348C14.2613 10.3565 13.9941 10.4619 13.753 10.5831C13.8921 10.4307 14.0509 10.2797 14.2267 10.1631C14.9491 9.68361 15.2402 8.80915 15.2402 8.80915C15.2402 8.80915 14.7116 9.45645 13.9688 9.73498C13.7663 9.81092 13.5564 9.96298 13.3679 10.1269C13.458 9.96307 13.5639 9.79925 13.6897 9.65853C14.2676 9.01207 14.3282 8.09248 14.3282 8.09248C14.3282 8.09248 13.9803 8.85232 13.332 9.3095C13.143 9.44281 12.9664 9.66162 12.8195 9.88278C12.8644 9.68562 12.9264 9.48115 13.0189 9.29689C13.4079 8.5219 13.2263 7.61839 13.2263 7.61839C13.2263 7.61839 13.0888 8.44273 12.5824 9.05337C12.433 9.23351 12.3189 9.49493 12.2345 9.74965C12.2254 9.54495 12.2311 9.32782 12.2726 9.12265C12.4445 8.27272 12.0319 7.44861 12.0319 7.44861C12.0319 7.44861 12.1158 8.28012 11.7875 9.00228C11.6987 9.19761 11.6569 9.45092 11.6393 9.69818C11.5882 9.52034 11.5481 9.33162 11.5378 9.14529C11.4898 8.27947 10.8828 7.586 10.8828 7.586C10.8828 7.586 11.1737 8.36947 11.038 9.15106C10.9985 9.37868 11.0281 9.65811 11.0804 9.91817C10.9729 9.74712 10.8725 9.55878 10.8079 9.36331C10.5355 8.54009 9.76848 8.02915 9.76848 8.02915C9.76848 8.02915 10.2538 8.70954 10.3269 9.49943C10.3487 9.734 10.454 10.0012 10.5753 10.2423C10.4228 10.1032 10.2719 9.94442 10.1552 9.76859C9.67572 9.04611 8.80126 8.75511 8.80126 8.75511C8.80126 8.75511 9.44856 9.28372 9.72709 10.0265C9.80303 10.229 9.95509 10.4389 10.119 10.6274C9.95518 10.5373 9.79136 10.4314 9.65064 10.3056C9.00419 9.72767 8.0846 9.66706 8.0846 9.66706C8.0846 9.66706 8.84444 10.015 9.30161 10.6633C9.43483 10.8523 9.65368 11.029 9.87475 11.1759C9.67764 11.131 9.47317 11.0689 9.28895 10.9765C8.51397 10.5874 7.61046 10.7691 7.61046 10.7691C7.61046 10.7691 8.4348 10.9065 9.04544 11.4129C9.22558 11.5623 9.487 11.6764 9.74172 11.7608C9.53701 11.7699 9.31989 11.7642 9.11472 11.7227C8.26478 11.5509 7.44067 11.9634 7.44067 11.9634C7.44067 11.9634 8.27219 11.8795 8.99434 12.2078C9.18967 12.2966 9.44298 12.3384 9.69025 12.356C9.5124 12.4072 9.32369 12.4472 9.13736 12.4575C8.27153 12.5055 7.57806 13.1125 7.57806 13.1125C7.57806 13.1125 8.36153 12.8217 9.14312 12.9573C9.37075 12.9968 9.65017 12.9672 9.91023 12.915C9.73919 13.0224 9.55084 13.1228 9.35537 13.1875C8.53216 13.4599 8.02122 14.2269 8.02122 14.2269C8.02122 14.2269 8.70161 13.7416 9.4915 13.6684C9.72606 13.6467 9.99329 13.5414 10.2343 13.4201C10.0952 13.5725 9.93648 13.7235 9.76065 13.8401C9.03817 14.3196 8.74712 15.1941 8.74712 15.1941C8.74712 15.1941 9.27573 14.5468 10.0186 14.2683C10.221 14.1923 10.4309 14.0403 10.6194 13.8764C10.5293 14.0401 10.4234 14.204 10.2977 14.3447C9.71973 14.9911 9.65912 15.9107 9.65912 15.9107C9.65912 15.9107 10.0071 15.1509 10.6554 14.6937C10.8444 14.5604 11.021 14.3416 11.1679 14.1205C11.123 14.3177 11.061 14.5221 10.9685 14.7063C10.5795 15.4813 10.7612 16.3848 10.7612 16.3848C10.7612 16.3848 10.8986 15.5605 11.405 14.9499C11.5544 14.7697 11.6685 14.5083 11.7529 14.2536C11.762 14.4584 11.7563 14.6755 11.7148 14.8806C11.5429 15.7306 11.9555 16.5546 11.9555 16.5546C11.9555 16.5546 11.8716 15.7232 12.1999 15.001C12.2887 14.8057 12.3305 14.5523 12.3481 14.3051C12.3992 14.4829 12.4393 14.6717 12.4496 14.858C12.4976 15.7238 13.1046 16.4173 13.1046 16.4173C13.1046 16.4173 12.8138 15.6338 12.9494 14.8522C12.9889 14.6246 12.9593 14.3452 12.907 14.0852C13.0145 14.2562 13.1149 14.4445 13.1795 14.64C13.4519 15.4632 14.2189 15.9741 14.2189 15.9741C14.2189 15.9741 13.7336 15.2937 13.6605 14.5038C13.6388 14.2692 13.5334 14.002 13.4121 13.761C13.5646 13.9001 13.7155 14.0588 13.8322 14.2346C14.3117 14.9571 15.1861 15.2482 15.1861 15.2482C15.1861 15.2482 14.5388 14.7196 14.2603 13.9767C14.1844 13.7743 14.0323 13.5644 13.8684 13.3759C14.0322 13.466 14.196 13.5719 14.3367 13.6976C14.9832 14.2756 15.9028 14.3362 15.9028 14.3362C15.9028 14.3362 15.1429 13.9882 14.6858 13.3399C14.5524 13.1509 14.3336 12.9742 14.1125 12.8274C14.3096 12.8723 14.5141 12.9343 14.6983 13.0268C15.4733 13.4157 16.3768 13.2341 16.3768 13.2341ZM11.9989 14.1011C10.8386 14.1011 9.89804 13.1606 9.89804 12.0003C9.89804 10.84 10.8386 9.89937 11.9989 9.89937C13.1592 9.89937 14.0998 10.84 14.0998 12.0003C14.0998 13.1606 13.1592 14.1011 11.9989 14.1011Z" fill="#FFE15A"/>
<path d="M11.3329 11.15C11.3777 11.115 11.4222 11.0799 11.4675 11.0487C11.1699 10.9133 10.9019 10.8483 10.714 10.8192C10.6841 10.8517 10.6571 10.8867 10.6296 10.9214C10.8142 10.9572 11.0622 11.0257 11.3329 11.15Z" fill="#FFE15A"/>
<path d="M10.8043 10.7266C11.0063 10.7494 11.2987 10.8095 11.6231 10.9491C11.6775 10.9166 11.7316 10.8879 11.7858 10.8602C11.4355 10.7164 11.1193 10.6628 10.9016 10.6463C10.8689 10.6728 10.835 10.6978 10.8043 10.7266Z" fill="#FFE15A"/>
<path d="M11.8561 11.7003C11.8142 11.6607 11.7718 11.6233 11.729 11.5879C11.3356 11.9622 10.9915 12.5082 10.8362 13.3003C10.8927 13.3509 10.9487 13.4019 11.0114 13.4449C11.1255 12.6393 11.4601 12.0832 11.8561 11.7003Z" fill="#FFE15A"/>
<path d="M11.7035 11.3523C11.7481 11.3165 11.7926 11.2805 11.8378 11.2484C11.7828 11.2133 11.7279 11.1825 11.6733 11.1524C11.6265 11.1845 11.5796 11.2155 11.5333 11.2515C11.5899 11.2827 11.6466 11.3159 11.7035 11.3523Z" fill="#FFE15A"/>
<path d="M12.7905 11.2509C13.1277 11.5471 13.436 11.9642 13.6553 12.5425C13.7116 12.3708 13.7497 12.1908 13.7497 12.0003C13.7497 11.6386 13.6398 11.3026 13.4518 11.0236C13.2779 11.0582 13.0444 11.1258 12.7905 11.2509Z" fill="#FFE15A"/>
<path d="M11.8688 11.4649C11.9127 11.4976 11.9557 11.5344 11.9989 11.5706C12.0421 11.5343 12.0851 11.4976 12.1291 11.4649C12.0859 11.4289 12.0428 11.3935 11.9989 11.3611C11.9551 11.3935 11.912 11.4289 11.8688 11.4649Z" fill="#FFE15A"/>
<path d="M11.9989 10.9579C11.944 10.9858 11.8889 11.0173 11.8336 11.05C11.8886 11.0789 11.9436 11.11 11.9989 11.1439C12.0543 11.11 12.1093 11.079 12.1643 11.05C12.109 11.0172 12.0539 10.9858 11.9989 10.9579Z" fill="#FFE15A"/>
<path d="M10.6453 13.0981C10.8306 12.3418 11.1797 11.8237 11.5704 11.4672C11.5158 11.4286 11.4613 11.3933 11.4068 11.3605C11.0308 11.6911 10.6906 12.1689 10.481 12.8572C10.5293 12.9426 10.5839 13.0225 10.6453 13.0981Z" fill="#FFE15A"/>
<path d="M11.2074 11.2509C10.9534 11.1257 10.72 11.0582 10.546 11.0236C10.3581 11.3026 10.2482 11.6385 10.2482 12.0002C10.2482 12.1907 10.2862 12.3707 10.3425 12.5424C10.5619 11.9641 10.8701 11.5471 11.2074 11.2509Z" fill="#FFE15A"/>
<path d="M11.999 10.7615C12.3715 10.6076 12.7151 10.5529 12.9594 10.5385C12.6835 10.3568 12.3541 10.2495 11.999 10.2495C11.6439 10.2495 11.3145 10.3569 11.0386 10.5385C11.2829 10.5529 11.6265 10.6075 11.999 10.7615Z" fill="#FFE15A"/>
<path d="M11.9989 11.8484C11.6498 12.2353 11.3616 12.7909 11.2681 13.5866C11.4911 13.6896 11.7371 13.751 11.9989 13.751C12.2608 13.751 12.5068 13.6896 12.7298 13.5866C12.6363 12.791 12.3481 12.2353 11.9989 11.8484Z" fill="#FFE15A"/>
<path d="M12.5911 11.3605C12.5366 11.3933 12.4821 11.4286 12.4275 11.4672C12.8181 11.8236 13.1673 12.3418 13.3525 13.0981C13.414 13.0225 13.4686 12.9426 13.5169 12.8572C13.3073 12.1689 12.9671 11.6911 12.5911 11.3605Z" fill="#FFE15A"/>
<path d="M13.1616 13.3003C13.0063 12.5082 12.6622 11.9623 12.2688 11.5879C12.226 11.6233 12.1836 11.6607 12.1417 11.7003C12.5377 12.0832 12.8723 12.6393 12.9864 13.4449C13.0491 13.4019 13.1051 13.3509 13.1616 13.3003Z" fill="#FFE15A"/>
<path d="M12.212 10.8602C12.2662 10.8879 12.3204 10.9166 12.3747 10.949C12.6991 10.8094 12.9915 10.7493 13.1935 10.7265C13.1628 10.6977 13.1289 10.6728 13.0962 10.6462C12.8785 10.6628 12.5623 10.7164 12.212 10.8602Z" fill="#FFE15A"/>
<path d="M12.2943 11.3523C12.3513 11.3159 12.4079 11.2828 12.4645 11.2515C12.4183 11.2155 12.3714 11.1845 12.3246 11.1524C12.2699 11.1825 12.2151 11.2133 12.16 11.2484C12.2052 11.2805 12.2498 11.3165 12.2943 11.3523Z" fill="#FFE15A"/>
<path d="M12.665 11.15C12.9356 11.0257 13.1837 10.9572 13.3682 10.9214C13.3407 10.8867 13.3138 10.8518 13.2838 10.8193C13.0959 10.8484 12.8279 10.9134 12.5303 11.0488C12.5756 11.0799 12.6203 11.1151 12.665 11.15Z" fill="#FFE15A"/>
</svg>